<svg id="Capa_1" data-name="Capa 1" xmlns="http://www.w3.org/2000/svg" viewBox="0 0 1000 1141.19"><defs><style>.cls-1{fill:none;}.cls-2{fill:#fff;}</style></defs><rect id="Color" class="cls-1" y="37.49" width="1000" height="1000"/><path class="cls-2" d="M451.61,756.83c0-136.24,90.07-215.24,193.83-215.24,53.07,0,95.84,25,123.49,53.29L720,654.42c-20.6-19.19-42.76-32.68-72.47-32.68-56.31,0-100.78,49.64-100.78,132,0,84.4,39.28,133.46,99.3,133.46,33.71,0,60.25-16.61,80.33-38.39l48.93,58.28c-34.09,39.65-79.46,60.26-132.6,60.26C538.56,967.32,451.61,895.13,451.61,756.83Z"/><path class="cls-2" d="M213.25,112.29H470.53v77.85H306.08v82.45h140v77.86h-140v94.6H476.83V522.9H213.25Z"/></svg>